<?xml version="1.0" standalone="no"?>
<!DOCTYPE svg PUBLIC "-//W3C//DTD SVG 20010904//EN"
 "http://www.w3.org/TR/2001/REC-SVG-20010904/DTD/svg10.dtd">
<svg version="1.0" xmlns="http://www.w3.org/2000/svg"
 width="125.000000pt" height="136.000000pt" viewBox="0 0 125.000000 136.000000"
 preserveAspectRatio="xMidYMid meet">
<metadata>
Created by potrace 1.16, written by Peter Selinger 2001-2019
</metadata>
<g transform="translate(0.000000,136.000000) scale(0.100000,-0.100000)"
fill="#000000" stroke="none">
<path d="M587 1320 c-73 -49 -130 -157 -144 -273 -6 -47 -7 -48 -74 -83 -70
-37 -149 -111 -149 -140 0 -12 7 -10 32 11 27 23 178 105 193 105 3 0 5 -7 5
-16 0 -28 44 -95 72 -110 42 -22 96 -17 146 12 l45 26 -6 -28 -5 -29 29 35
c31 37 36 56 17 63 -10 3 -10 7 1 20 7 10 19 17 25 17 7 0 23 11 36 24 23 25
22 56 -2 56 -7 0 8 14 35 30 71 45 62 68 -12 31 -41 -21 -92 -74 -115 -120
-23 -45 -73 -81 -110 -81 -25 0 -41 9 -64 35 -18 19 -32 41 -32 50 0 8 22 26
48 39 27 14 70 41 97 61 36 28 50 34 56 24 4 -7 5 -17 2 -23 -3 -5 -1 -6 6 -2
6 4 9 12 6 17 -4 5 -2 9 4 9 14 0 38 47 46 92 9 48 -18 131 -52 158 -37 29
-82 25 -136 -10z m84 -40 c23 -13 26 -65 6 -113 -17 -39 -81 -98 -138 -127
l-41 -21 7 53 c15 110 56 183 115 207 32 13 28 13 51 1z"/>
<path d="M307 733 c-4 -3 -1 -13 6 -21 10 -13 7 -15 -25 -9 -33 5 -38 3 -38
-13 0 -10 6 -21 13 -23 6 -3 2 -6 -10 -6 -21 -1 -23 -6 -23 -50 l0 -50 268 0
c147 1 272 0 277 -1 6 -1 14 -2 19 -1 4 1 51 2 102 3 l94 1 0 48 0 49 -266 0
c-174 0 -263 3 -259 10 3 6 33 10 66 10 59 0 59 0 59 30 0 23 -5 30 -19 30
-11 0 -22 -8 -24 -17 -4 -16 -5 -16 -6 1 -1 14 -6 17 -23 12 -13 -3 -27 -6
-32 -6 -4 0 -6 -7 -3 -14 4 -10 1 -13 -9 -9 -8 3 -14 -1 -14 -11 0 -9 -4 -16
-10 -16 -5 0 -10 10 -10 21 0 16 -5 20 -20 16 -11 -3 -20 -1 -20 4 0 5 -5 9
-11 9 -6 0 -9 -6 -6 -13 3 -9 -2 -13 -16 -12 -12 1 -23 9 -25 18 -3 17 -23 23
-35 10z"/>
<path d="M522 402 c14 -6 10 -13 -22 -43 -22 -19 -41 -31 -43 -25 -5 15 -37
-1 -37 -19 0 -12 6 -15 19 -10 16 5 18 2 14 -15 -3 -11 -9 -20 -13 -20 -5 0
-16 -7 -24 -16 -15 -14 -16 -14 -16 0 0 24 -19 19 -30 -8 -10 -28 -8 -56 6
-57 5 0 20 10 32 22 21 20 67 49 78 49 2 0 4 -9 4 -20 0 -23 35 -31 128 -27
56 2 65 5 86 32 29 36 23 52 -10 30 -23 -15 -24 -14 -24 7 0 21 -3 19 -22 -11
-12 -19 -24 -29 -26 -23 -2 8 -11 8 -30 1 -36 -14 -72 -3 -72 21 0 11 -4 20
-10 20 -21 0 -9 35 22 67 27 28 30 35 18 43 -8 5 -22 9 -30 9 -12 0 -11 -2 2
-7z"/>
</g>
</svg>
